<mxfile host="65bd71144e">
    <diagram id="1J22H_DpeyfqzvlcDiLK" name="PÃ¡gina-1">
        <mxGraphModel dx="1448" dy="1809" grid="1" gridSize="10" guides="1" tooltips="1" connect="1" arrows="1" fold="1" page="1" pageScale="1" pageWidth="827" pageHeight="1169" math="0" shadow="0">
            <root>
                <mxCell id="0"/>
                <mxCell id="1" parent="0"/>
                <mxCell id="2" value="USUARIOS-KEYCLOACK" style="shape=cube;whiteSpace=wrap;html=1;boundedLbl=1;backgroundOutline=1;darkOpacity=0.05;darkOpacity2=0.1;" parent="1" vertex="1">
                    <mxGeometry x="370" y="-50" width="120" height="80" as="geometry"/>
                </mxCell>
                <mxCell id="3" style="edgeStyle=orthogonalEdgeStyle;rounded=0;orthogonalLoop=1;jettySize=auto;html=1;" parent="1" source="5" target="21" edge="1">
                    <mxGeometry relative="1" as="geometry">
                        <Array as="points">
                            <mxPoint x="710" y="330"/>
                            <mxPoint x="800" y="330"/>
                        </Array>
                    </mxGeometry>
                </mxCell>
                <mxCell id="4" style="edgeStyle=orthogonalEdgeStyle;rounded=0;orthogonalLoop=1;jettySize=auto;html=1;" parent="1" source="5" target="19" edge="1">
                    <mxGeometry relative="1" as="geometry"/>
                </mxCell>
                <mxCell id="5" value="TODO" style="shape=cube;whiteSpace=wrap;html=1;boundedLbl=1;backgroundOutline=1;darkOpacity=0.05;darkOpacity2=0.1;" parent="1" vertex="1">
                    <mxGeometry x="610" y="210" width="120" height="80" as="geometry"/>
                </mxCell>
                <mxCell id="6" style="edgeStyle=orthogonalEdgeStyle;rounded=0;orthogonalLoop=1;jettySize=auto;html=1;" parent="1" source="7" target="13" edge="1">
                    <mxGeometry relative="1" as="geometry">
                        <Array as="points">
                            <mxPoint x="170" y="270"/>
                        </Array>
                    </mxGeometry>
                </mxCell>
                <mxCell id="7" value="API GATEWAY&lt;div&gt;BL&lt;/div&gt;" style="shape=cube;whiteSpace=wrap;html=1;boundedLbl=1;backgroundOutline=1;darkOpacity=0.05;darkOpacity2=0.1;" parent="1" vertex="1">
                    <mxGeometry y="230" width="120" height="80" as="geometry"/>
                </mxCell>
                <mxCell id="8" style="edgeStyle=orthogonalEdgeStyle;rounded=0;orthogonalLoop=1;jettySize=auto;html=1;exitX=1;exitY=0.3333333333333333;exitDx=0;exitDy=0;exitPerimeter=0;" parent="1" source="9" target="7" edge="1">
                    <mxGeometry relative="1" as="geometry"/>
                </mxCell>
                <mxCell id="9" value="Actor" style="shape=umlActor;verticalLabelPosition=bottom;verticalAlign=top;html=1;outlineConnect=0;" parent="1" vertex="1">
                    <mxGeometry x="-140" y="240" width="30" height="60" as="geometry"/>
                </mxCell>
                <mxCell id="10" style="edgeStyle=orthogonalEdgeStyle;rounded=0;orthogonalLoop=1;jettySize=auto;html=1;" parent="1" source="12" target="20" edge="1">
                    <mxGeometry relative="1" as="geometry"/>
                </mxCell>
                <mxCell id="11" style="edgeStyle=orthogonalEdgeStyle;rounded=0;orthogonalLoop=1;jettySize=auto;html=1;" parent="1" source="12" target="21" edge="1">
                    <mxGeometry relative="1" as="geometry">
                        <Array as="points">
                            <mxPoint x="860" y="380"/>
                        </Array>
                    </mxGeometry>
                </mxCell>
                <mxCell id="12" value="CONSULTAS" style="shape=cube;whiteSpace=wrap;html=1;boundedLbl=1;backgroundOutline=1;darkOpacity=0.05;darkOpacity2=0.1;" parent="1" vertex="1">
                    <mxGeometry x="800" y="210" width="120" height="80" as="geometry"/>
                </mxCell>
                <mxCell id="13" value="EUREKA" style="shape=cube;whiteSpace=wrap;html=1;boundedLbl=1;backgroundOutline=1;darkOpacity=0.05;darkOpacity2=0.1;" parent="1" vertex="1">
                    <mxGeometry x="170" y="60" width="120" height="80" as="geometry"/>
                </mxCell>
                <mxCell id="14" style="edgeStyle=orthogonalEdgeStyle;rounded=0;orthogonalLoop=1;jettySize=auto;html=1;entryX=0.333;entryY=1;entryDx=0;entryDy=0;entryPerimeter=0;" parent="1" source="5" target="13" edge="1">
                    <mxGeometry relative="1" as="geometry">
                        <mxPoint x="410" y="250" as="sourcePoint"/>
                    </mxGeometry>
                </mxCell>
                <mxCell id="15" style="edgeStyle=orthogonalEdgeStyle;rounded=0;orthogonalLoop=1;jettySize=auto;html=1;entryX=0;entryY=0;entryDx=70;entryDy=80;entryPerimeter=0;" parent="1" source="5" target="13" edge="1">
                    <mxGeometry relative="1" as="geometry">
                        <Array as="points">
                            <mxPoint x="670" y="180"/>
                            <mxPoint x="240" y="180"/>
                        </Array>
                    </mxGeometry>
                </mxCell>
                <mxCell id="16" style="edgeStyle=orthogonalEdgeStyle;rounded=0;orthogonalLoop=1;jettySize=auto;html=1;entryX=0;entryY=0;entryDx=120;entryDy=50;entryPerimeter=0;" parent="1" source="12" target="13" edge="1">
                    <mxGeometry relative="1" as="geometry">
                        <Array as="points">
                            <mxPoint x="860" y="140"/>
                            <mxPoint x="545" y="140"/>
                            <mxPoint x="545" y="110"/>
                        </Array>
                    </mxGeometry>
                </mxCell>
                <mxCell id="17" style="edgeStyle=orthogonalEdgeStyle;rounded=0;orthogonalLoop=1;jettySize=auto;html=1;" parent="1" source="18" target="20" edge="1">
                    <mxGeometry relative="1" as="geometry"/>
                </mxCell>
                <mxCell id="18" value="" style="shape=card;whiteSpace=wrap;html=1;" parent="1" vertex="1">
                    <mxGeometry x="1120" y="180" width="80" height="100" as="geometry"/>
                </mxCell>
                <mxCell id="19" value="Pg" style="shape=cylinder3;whiteSpace=wrap;html=1;boundedLbl=1;backgroundOutline=1;size=15;" parent="1" vertex="1">
                    <mxGeometry x="650" y="360" width="60" height="80" as="geometry"/>
                </mxCell>
                <mxCell id="20" value="NoSql" style="shape=cylinder3;whiteSpace=wrap;html=1;boundedLbl=1;backgroundOutline=1;size=15;" parent="1" vertex="1">
                    <mxGeometry x="990" y="200" width="60" height="80" as="geometry"/>
                </mxCell>
                <mxCell id="21" value="kafka" style="text;html=1;align=center;verticalAlign=middle;resizable=0;points=[];autosize=1;strokeColor=none;fillColor=none;" parent="1" vertex="1">
                    <mxGeometry x="775" y="368" width="50" height="30" as="geometry"/>
                </mxCell>
                <mxCell id="22" value="OAUTH2" style="text;html=1;align=center;verticalAlign=middle;resizable=0;points=[];autosize=1;strokeColor=none;fillColor=none;" parent="1" vertex="1">
                    <mxGeometry x="210" y="-30" width="70" height="30" as="geometry"/>
                </mxCell>
                <mxCell id="23" value="CQRS" style="edgeStyle=none;orthogonalLoop=1;jettySize=auto;html=1;rounded=0;" parent="1" edge="1">
                    <mxGeometry x="-0.25" y="-10" width="80" relative="1" as="geometry">
                        <mxPoint x="1000" y="410" as="sourcePoint"/>
                        <mxPoint x="1080" y="410" as="targetPoint"/>
                        <Array as="points"/>
                        <mxPoint as="offset"/>
                    </mxGeometry>
                </mxCell>
                <mxCell id="24" value="DDD" style="text;html=1;align=center;verticalAlign=middle;resizable=0;points=[];autosize=1;strokeColor=none;fillColor=none;" parent="1" vertex="1">
                    <mxGeometry x="220" y="-90" width="50" height="30" as="geometry"/>
                </mxCell>
                <mxCell id="25" value="" style="shape=image;verticalLabelPosition=bottom;labelBackgroundColor=default;verticalAlign=top;aspect=fixed;imageAspect=0;image=data:image/png,iVBORw0KGgoAAAANSUhEUgAAAQUAAAAZCAIAAAC3l6ySAAAHwUlEQVR4Ae1b7U9TVxhH3Zct+wMcYlzMXhLjlHF5s+oMhjqc1gwYXVYBFWPrJsHaESFob8Fo1ba8SK3AqHJ9Q+sGIyAiqMOi8S0oy7IsxsQY9g/4Rb/4pcu5556X+8qlrCXKbW7ac5/nOb/nuQ/P75zntCElNW0xutI+WgSuhamLFqam5q4yLf8yC14WlVdlZWVdXd2WLVtU9IL4q61VX+xuWWn3rXQ0rrD7Vzoal+/yrd9cxKunmKuN/LZpa9tuDxypeNuinireHccHhsO1U1n9P/qfw/cS6isFkWFxatq0+WCxWKYkg1oazJvUNO+w/N3kw7v0B5spH/TkYrOSkaJQydCQGRlIXgaSwYfkPY3hycjAzDKgiw8fL/3UuIwMzIUM6OUDk4BXenq6KTcdA2dmZuKxMTAyMCsZSAYfNn1TcMDNsg2Hq/Y6t2/fVnfA7a4/7A8EQu1hj7fJ03Bo08avZ+XhDadGBiQZSDgfNhZsiPQNN56/Wd8x2D14/8GfT/3cdbZ98MLVBw/+nvyl9+6xrpHzkf6iwm8lkRm3RgaSn4GE8+G4L9DUHV2QUTe/yHuks9/h7Z7/fvWHZf7569gCZ6ixa+C9Uv/hrluNza0ZGRmy5/dEY+Q1ydkEAxs3GSN30lnaWmLtiSqCUD7VfRCUhI2s9kDIXiyGz3e4AjUWXmZxhtgAfzmtYiMGq9B0s40VjF0VZokxf0v70jLGyKzUKZnFSsImMRMbHIY6oFKYiZcllg8ZGRmnOrmSA9wHPxwtqe38/cYjd/DXbewZ04+tubtPfFLRdG1sou3ScFnDxaP+lsx0cpZAD06XLF+nUQ9S6fmkp8vtlbTACWaBXmLJoWco4avE62K9tnwaCVQtyzryGIbJd9gEqoAiQ3UPjPMqvEKxkkK02gQaWO0BCSYkD+1L3VjdKcNY7TAwOl4wpmJmZMhagFKg5NzHzwf58VcuYRimufXUvqaeeUVHvq8LD0afXB66P3D7yYpdLct2Ngcvjow++qf53FDg7PD+2jqlBxaXLKjPaRFCPF3qQK6VOZAJpBgJvLfa0VYAnVicIbuzRrYwg4Km+GC2USwSqxiGEWmp2KW+eJWaMVBKkYsVAhPMFGJWQJYCUsElcxgnH+rr6zmOy87OxrFmZ2dzHOfxSNfvg263jxuZt7FhRz0X/m101U/BcM/tquPdKVt9oUs3Wi8MHQz1nb4yUlqKeiGMCAaSksXlScmBDLwmOQ71P1BL9T08ici9wCkKBDrF8CQGGzcp2i5g9yYAINcxxFJlF5zQ9GEgAq8xyne4qBU3r8LrqjDDd9EksglAMV3Z6luHCALsNrQvqCT7jMSY351g24aLGBjD5k1HzArI0qeQu0ySJB4+ZGVlcRw3Pj6OKQHJACVZWVl07OVlW8/2jc0rOLTn6IW2yzdSlu9vPnfdfbInZY3bE+o93fPH5ZGJznOR1bnyw4MePoAKhNXJFycsOVzoeEBHhIV4gLR08QsyTBEwEBc0Nd0TVVHxBIHxkUiRO+3P4hrcZOMCwvUnTAVlJOl/KA4U17BQC8zA+QEDSj1TvgA3tI0pp9J4+H0DelGIWQ2ZApQGlvT7ePjAMExOTg6mhMlkwmN6x4DPkpu5rLtnaMnOE9bajq6+O5X+K8HuEUt1e4rN99mOQP/ok6fP/123drXKg1M1ByxwwSI5FgAtEioMeHiyektog5zj4kcC4lGuAhLqRYoeCuUucHgEXWOUV+EVuiDSiojaDFBw1GJMoFDZsc4acU9PUYVYgxHxReTKxqpO8UQYrUrMvJUIeWpAjJyUQZx8YBgG7wljY2P0XiEP2xdo9HQMLvi8Jhy5fnN07Fp0wrTnZGHETF+Oq6WFEflXH+IaIkWJ5Pr5QObiOQiEREyMBBkW4AE21pIoupC7w1jyAS59/jwKWxHhvcYCjgHqiz0CkzdXcglvi32hmfynzFi/Uwc494su4Tsx6AAh6wIUxZT4m/j5QFMCN06SgOEJe0P++v6b97n+e+OPJ+48+mvs8bNA11UJGV6/eXXsrvTsQS35cPlHfbpoB9DXL+FqBHUsX7xR4KKuBtygRohMo02RlpdN4QKrEYDWJ30MQHb5Dhf/LSeqJyTn6UEdqYEcr7sWJ26o4JdLouWZhyC+NIw1nOYVW8FXXsK5ArtDEj5mGTKIULV/g2iz8T4jPkBKsCybk5OjHXxJyXcu176qqr0tJzuCoXZfuL8wYnaPVkNWvHj5fOBZr8r+gHsSuvao2kJdkOw8DSISlKCZAQUNXpPRqHBEpkDo6BFgDJ1MkJIoYHOEIQHs1C5U3CF00afKAZcvIFDQ9OprLyYlDmgAF2b8+wA4RQj2PGeIseCR9qVqrOWU/IYgPcxQRa+EjAOT/mQhykVSb2bKhziCLSsvD3Rdc49Wx2Kx4EP/wLPeFy+fQ2LEgUamyBsYojNGRgZ0ZWAW+FBeXt4WuVUYMQcf+mOx2Os3r+DhQWl/0PUM0Ais3vQWMo2phqmRASEDyeNDJsPAr2LXrV3TfuYi3BCCD/3H7nrwWWL6fxbUBaGWZfoIxgwjAyQDyeMD8ckwptxszAF6QNsYYyMDyc+AXj7Mhf8FMZ7RyIAuPqQtWWpcRgbmQgYMPhhUNzJAMmDwgeRiLqx/xjNqZ+A/7HO6Gqxdt4IAAAAASUVORK5CYII=;" parent="1" vertex="1">
                    <mxGeometry x="880" y="-10" width="261" height="25" as="geometry"/>
                </mxCell>
                <mxCell id="26" value="usuario : utodo" style="text;html=1;align=center;verticalAlign=middle;resizable=0;points=[];autosize=1;strokeColor=none;fillColor=none;" parent="1" vertex="1">
                    <mxGeometry x="880" y="28" width="100" height="30" as="geometry"/>
                </mxCell>
                <mxCell id="27" value="password : utodo" style="text;html=1;align=center;verticalAlign=middle;resizable=0;points=[];autosize=1;strokeColor=none;fillColor=none;" parent="1" vertex="1">
                    <mxGeometry x="880" y="58" width="110" height="30" as="geometry"/>
                </mxCell>
                <mxCell id="28" value="task" style="swimlane;fontStyle=0;childLayout=stackLayout;horizontal=1;startSize=30;horizontalStack=0;resizeParent=1;resizeParentMax=0;resizeLast=0;collapsible=1;marginBottom=0;whiteSpace=wrap;html=1;" parent="1" vertex="1">
                    <mxGeometry x="360" y="480" width="140" height="240" as="geometry"/>
                </mxCell>
                <mxCell id="29" value="id_task" style="text;strokeColor=none;fillColor=none;align=left;verticalAlign=middle;spacingLeft=4;spacingRight=4;overflow=hidden;points=[[0,0.5],[1,0.5]];portConstraint=eastwest;rotatable=0;whiteSpace=wrap;html=1;" parent="28" vertex="1">
                    <mxGeometry y="30" width="140" height="30" as="geometry"/>
                </mxCell>
                <mxCell id="30" value="task_title" style="text;strokeColor=none;fillColor=none;align=left;verticalAlign=middle;spacingLeft=4;spacingRight=4;overflow=hidden;points=[[0,0.5],[1,0.5]];portConstraint=eastwest;rotatable=0;whiteSpace=wrap;html=1;" parent="28" vertex="1">
                    <mxGeometry y="60" width="140" height="30" as="geometry"/>
                </mxCell>
                <mxCell id="31" value="task_description" style="text;strokeColor=none;fillColor=none;align=left;verticalAlign=middle;spacingLeft=4;spacingRight=4;overflow=hidden;points=[[0,0.5],[1,0.5]];portConstraint=eastwest;rotatable=0;whiteSpace=wrap;html=1;" parent="28" vertex="1">
                    <mxGeometry y="90" width="140" height="30" as="geometry"/>
                </mxCell>
                <mxCell id="32" value="id_state" style="text;strokeColor=none;fillColor=none;align=left;verticalAlign=middle;spacingLeft=4;spacingRight=4;overflow=hidden;points=[[0,0.5],[1,0.5]];portConstraint=eastwest;rotatable=0;whiteSpace=wrap;html=1;" parent="28" vertex="1">
                    <mxGeometry y="120" width="140" height="30" as="geometry"/>
                </mxCell>
                <mxCell id="33" value="user_id" style="text;strokeColor=none;fillColor=none;align=left;verticalAlign=middle;spacingLeft=4;spacingRight=4;overflow=hidden;points=[[0,0.5],[1,0.5]];portConstraint=eastwest;rotatable=0;whiteSpace=wrap;html=1;" parent="28" vertex="1">
                    <mxGeometry y="150" width="140" height="30" as="geometry"/>
                </mxCell>
                <mxCell id="34" value="created_at" style="text;strokeColor=none;fillColor=none;align=left;verticalAlign=middle;spacingLeft=4;spacingRight=4;overflow=hidden;points=[[0,0.5],[1,0.5]];portConstraint=eastwest;rotatable=0;whiteSpace=wrap;html=1;" parent="28" vertex="1">
                    <mxGeometry y="180" width="140" height="30" as="geometry"/>
                </mxCell>
                <mxCell id="35" value="updated_at" style="text;strokeColor=none;fillColor=none;align=left;verticalAlign=middle;spacingLeft=4;spacingRight=4;overflow=hidden;points=[[0,0.5],[1,0.5]];portConstraint=eastwest;rotatable=0;whiteSpace=wrap;html=1;" parent="28" vertex="1">
                    <mxGeometry y="210" width="140" height="30" as="geometry"/>
                </mxCell>
                <mxCell id="36" value="detail_task" style="swimlane;fontStyle=0;childLayout=stackLayout;horizontal=1;startSize=30;horizontalStack=0;resizeParent=1;resizeParentMax=0;resizeLast=0;collapsible=1;marginBottom=0;whiteSpace=wrap;html=1;" parent="1" vertex="1">
                    <mxGeometry x="635" y="530" width="140" height="180" as="geometry"/>
                </mxCell>
                <mxCell id="37" value="id_&lt;span style=&quot;text-align: center;&quot;&gt;detail_task&lt;/span&gt;" style="text;strokeColor=none;fillColor=none;align=left;verticalAlign=middle;spacingLeft=4;spacingRight=4;overflow=hidden;points=[[0,0.5],[1,0.5]];portConstraint=eastwest;rotatable=0;whiteSpace=wrap;html=1;" parent="36" vertex="1">
                    <mxGeometry y="30" width="140" height="30" as="geometry"/>
                </mxCell>
                <mxCell id="38" value="comment_detail_task" style="text;strokeColor=none;fillColor=none;align=left;verticalAlign=middle;spacingLeft=4;spacingRight=4;overflow=hidden;points=[[0,0.5],[1,0.5]];portConstraint=eastwest;rotatable=0;whiteSpace=wrap;html=1;" parent="36" vertex="1">
                    <mxGeometry y="60" width="140" height="30" as="geometry"/>
                </mxCell>
                <mxCell id="39" value="id_task" style="text;strokeColor=none;fillColor=none;align=left;verticalAlign=middle;spacingLeft=4;spacingRight=4;overflow=hidden;points=[[0,0.5],[1,0.5]];portConstraint=eastwest;rotatable=0;whiteSpace=wrap;html=1;" parent="36" vertex="1">
                    <mxGeometry y="90" width="140" height="30" as="geometry"/>
                </mxCell>
                <mxCell id="40" value="created_at" style="text;strokeColor=none;fillColor=none;align=left;verticalAlign=middle;spacingLeft=4;spacingRight=4;overflow=hidden;points=[[0,0.5],[1,0.5]];portConstraint=eastwest;rotatable=0;whiteSpace=wrap;html=1;" parent="36" vertex="1">
                    <mxGeometry y="120" width="140" height="30" as="geometry"/>
                </mxCell>
                <mxCell id="41" value="updated_at" style="text;strokeColor=none;fillColor=none;align=left;verticalAlign=middle;spacingLeft=4;spacingRight=4;overflow=hidden;points=[[0,0.5],[1,0.5]];portConstraint=eastwest;rotatable=0;whiteSpace=wrap;html=1;" parent="36" vertex="1">
                    <mxGeometry y="150" width="140" height="30" as="geometry"/>
                </mxCell>
                <mxCell id="42" value="state" style="swimlane;fontStyle=0;childLayout=stackLayout;horizontal=1;startSize=30;horizontalStack=0;resizeParent=1;resizeParentMax=0;resizeLast=0;collapsible=1;marginBottom=0;whiteSpace=wrap;html=1;" parent="1" vertex="1">
                    <mxGeometry x="80" y="500" width="140" height="180" as="geometry"/>
                </mxCell>
                <mxCell id="43" value="id_state" style="text;strokeColor=none;fillColor=none;align=left;verticalAlign=middle;spacingLeft=4;spacingRight=4;overflow=hidden;points=[[0,0.5],[1,0.5]];portConstraint=eastwest;rotatable=0;whiteSpace=wrap;html=1;" parent="42" vertex="1">
                    <mxGeometry y="30" width="140" height="30" as="geometry"/>
                </mxCell>
                <mxCell id="44" value="state_description" style="text;strokeColor=none;fillColor=none;align=left;verticalAlign=middle;spacingLeft=4;spacingRight=4;overflow=hidden;points=[[0,0.5],[1,0.5]];portConstraint=eastwest;rotatable=0;whiteSpace=wrap;html=1;" parent="42" vertex="1">
                    <mxGeometry y="60" width="140" height="30" as="geometry"/>
                </mxCell>
                <mxCell id="45" value="state_comment" style="text;strokeColor=none;fillColor=none;align=left;verticalAlign=middle;spacingLeft=4;spacingRight=4;overflow=hidden;points=[[0,0.5],[1,0.5]];portConstraint=eastwest;rotatable=0;whiteSpace=wrap;html=1;" parent="42" vertex="1">
                    <mxGeometry y="90" width="140" height="30" as="geometry"/>
                </mxCell>
                <mxCell id="46" value="updated_at" style="text;strokeColor=none;fillColor=none;align=left;verticalAlign=middle;spacingLeft=4;spacingRight=4;overflow=hidden;points=[[0,0.5],[1,0.5]];portConstraint=eastwest;rotatable=0;whiteSpace=wrap;html=1;" parent="42" vertex="1">
                    <mxGeometry y="120" width="140" height="30" as="geometry"/>
                </mxCell>
                <mxCell id="47" value="created_at" style="text;strokeColor=none;fillColor=none;align=left;verticalAlign=middle;spacingLeft=4;spacingRight=4;overflow=hidden;points=[[0,0.5],[1,0.5]];portConstraint=eastwest;rotatable=0;whiteSpace=wrap;html=1;" parent="42" vertex="1">
                    <mxGeometry y="150" width="140" height="30" as="geometry"/>
                </mxCell>
                <mxCell id="48" style="edgeStyle=orthogonalEdgeStyle;rounded=0;orthogonalLoop=1;jettySize=auto;html=1;" parent="1" source="44" target="32" edge="1">
                    <mxGeometry relative="1" as="geometry"/>
                </mxCell>
                <mxCell id="49" style="edgeStyle=orthogonalEdgeStyle;rounded=0;orthogonalLoop=1;jettySize=auto;html=1;" parent="1" source="29" target="39" edge="1">
                    <mxGeometry relative="1" as="geometry"/>
                </mxCell>
                <UserObject label="https://github.com/DN-TODO/mcsv-toto.git" link="https://github.com/DN-TODO/mcsv-toto.git" id="50">
                    <mxCell style="text;whiteSpace=wrap;" parent="1" vertex="1">
                        <mxGeometry x="890" y="88" width="260" height="40" as="geometry"/>
                    </mxCell>
                </UserObject>
            </root>
        </mxGraphModel>
    </diagram>
    <diagram name="todo" id="oZ6KDLw_shpZ8gjEPmfw">
        <mxGraphModel dx="1163" dy="640" grid="1" gridSize="10" guides="1" tooltips="1" connect="1" arrows="1" fold="1" page="1" pageScale="1" pageWidth="827" pageHeight="1169" math="0" shadow="0">
            <root>
                <mxCell id="0"/>
                <mxCell id="1" parent="0"/>
                <mxCell id="uC44kk6Rwxfdya4K_sq8-2" value="task" style="swimlane;fontStyle=0;childLayout=stackLayout;horizontal=1;startSize=30;horizontalStack=0;resizeParent=1;resizeParentMax=0;resizeLast=0;collapsible=1;marginBottom=0;whiteSpace=wrap;html=1;" parent="1" vertex="1">
                    <mxGeometry x="360" y="410" width="140" height="240" as="geometry"/>
                </mxCell>
                <mxCell id="uC44kk6Rwxfdya4K_sq8-3" value="id_task" style="text;strokeColor=none;fillColor=none;align=left;verticalAlign=middle;spacingLeft=4;spacingRight=4;overflow=hidden;points=[[0,0.5],[1,0.5]];portConstraint=eastwest;rotatable=0;whiteSpace=wrap;html=1;" parent="uC44kk6Rwxfdya4K_sq8-2" vertex="1">
                    <mxGeometry y="30" width="140" height="30" as="geometry"/>
                </mxCell>
                <mxCell id="uC44kk6Rwxfdya4K_sq8-4" value="task_title" style="text;strokeColor=none;fillColor=none;align=left;verticalAlign=middle;spacingLeft=4;spacingRight=4;overflow=hidden;points=[[0,0.5],[1,0.5]];portConstraint=eastwest;rotatable=0;whiteSpace=wrap;html=1;" parent="uC44kk6Rwxfdya4K_sq8-2" vertex="1">
                    <mxGeometry y="60" width="140" height="30" as="geometry"/>
                </mxCell>
                <mxCell id="uC44kk6Rwxfdya4K_sq8-5" value="task_description" style="text;strokeColor=none;fillColor=none;align=left;verticalAlign=middle;spacingLeft=4;spacingRight=4;overflow=hidden;points=[[0,0.5],[1,0.5]];portConstraint=eastwest;rotatable=0;whiteSpace=wrap;html=1;" parent="uC44kk6Rwxfdya4K_sq8-2" vertex="1">
                    <mxGeometry y="90" width="140" height="30" as="geometry"/>
                </mxCell>
                <mxCell id="uC44kk6Rwxfdya4K_sq8-6" value="id_state" style="text;strokeColor=none;fillColor=none;align=left;verticalAlign=middle;spacingLeft=4;spacingRight=4;overflow=hidden;points=[[0,0.5],[1,0.5]];portConstraint=eastwest;rotatable=0;whiteSpace=wrap;html=1;" parent="uC44kk6Rwxfdya4K_sq8-2" vertex="1">
                    <mxGeometry y="120" width="140" height="30" as="geometry"/>
                </mxCell>
                <mxCell id="uC44kk6Rwxfdya4K_sq8-7" value="user_id" style="text;strokeColor=none;fillColor=none;align=left;verticalAlign=middle;spacingLeft=4;spacingRight=4;overflow=hidden;points=[[0,0.5],[1,0.5]];portConstraint=eastwest;rotatable=0;whiteSpace=wrap;html=1;" parent="uC44kk6Rwxfdya4K_sq8-2" vertex="1">
                    <mxGeometry y="150" width="140" height="30" as="geometry"/>
                </mxCell>
                <mxCell id="CSKIVrOOrLpzqzcStOgt-1" value="created_at" style="text;strokeColor=none;fillColor=none;align=left;verticalAlign=middle;spacingLeft=4;spacingRight=4;overflow=hidden;points=[[0,0.5],[1,0.5]];portConstraint=eastwest;rotatable=0;whiteSpace=wrap;html=1;" parent="uC44kk6Rwxfdya4K_sq8-2" vertex="1">
                    <mxGeometry y="180" width="140" height="30" as="geometry"/>
                </mxCell>
                <mxCell id="CSKIVrOOrLpzqzcStOgt-2" value="updated_at" style="text;strokeColor=none;fillColor=none;align=left;verticalAlign=middle;spacingLeft=4;spacingRight=4;overflow=hidden;points=[[0,0.5],[1,0.5]];portConstraint=eastwest;rotatable=0;whiteSpace=wrap;html=1;" parent="uC44kk6Rwxfdya4K_sq8-2" vertex="1">
                    <mxGeometry y="210" width="140" height="30" as="geometry"/>
                </mxCell>
                <mxCell id="uC44kk6Rwxfdya4K_sq8-8" value="detail_task" style="swimlane;fontStyle=0;childLayout=stackLayout;horizontal=1;startSize=30;horizontalStack=0;resizeParent=1;resizeParentMax=0;resizeLast=0;collapsible=1;marginBottom=0;whiteSpace=wrap;html=1;" parent="1" vertex="1">
                    <mxGeometry x="630" y="550" width="140" height="180" as="geometry"/>
                </mxCell>
                <mxCell id="uC44kk6Rwxfdya4K_sq8-9" value="id_&lt;span style=&quot;text-align: center;&quot;&gt;detail_task&lt;/span&gt;" style="text;strokeColor=none;fillColor=none;align=left;verticalAlign=middle;spacingLeft=4;spacingRight=4;overflow=hidden;points=[[0,0.5],[1,0.5]];portConstraint=eastwest;rotatable=0;whiteSpace=wrap;html=1;" parent="uC44kk6Rwxfdya4K_sq8-8" vertex="1">
                    <mxGeometry y="30" width="140" height="30" as="geometry"/>
                </mxCell>
                <mxCell id="uC44kk6Rwxfdya4K_sq8-10" value="comment_detail_task" style="text;strokeColor=none;fillColor=none;align=left;verticalAlign=middle;spacingLeft=4;spacingRight=4;overflow=hidden;points=[[0,0.5],[1,0.5]];portConstraint=eastwest;rotatable=0;whiteSpace=wrap;html=1;" parent="uC44kk6Rwxfdya4K_sq8-8" vertex="1">
                    <mxGeometry y="60" width="140" height="30" as="geometry"/>
                </mxCell>
                <mxCell id="uC44kk6Rwxfdya4K_sq8-11" value="id_task" style="text;strokeColor=none;fillColor=none;align=left;verticalAlign=middle;spacingLeft=4;spacingRight=4;overflow=hidden;points=[[0,0.5],[1,0.5]];portConstraint=eastwest;rotatable=0;whiteSpace=wrap;html=1;" parent="uC44kk6Rwxfdya4K_sq8-8" vertex="1">
                    <mxGeometry y="90" width="140" height="30" as="geometry"/>
                </mxCell>
                <mxCell id="CSKIVrOOrLpzqzcStOgt-4" value="created_at" style="text;strokeColor=none;fillColor=none;align=left;verticalAlign=middle;spacingLeft=4;spacingRight=4;overflow=hidden;points=[[0,0.5],[1,0.5]];portConstraint=eastwest;rotatable=0;whiteSpace=wrap;html=1;" parent="uC44kk6Rwxfdya4K_sq8-8" vertex="1">
                    <mxGeometry y="120" width="140" height="30" as="geometry"/>
                </mxCell>
                <mxCell id="CSKIVrOOrLpzqzcStOgt-5" value="updated_at" style="text;strokeColor=none;fillColor=none;align=left;verticalAlign=middle;spacingLeft=4;spacingRight=4;overflow=hidden;points=[[0,0.5],[1,0.5]];portConstraint=eastwest;rotatable=0;whiteSpace=wrap;html=1;" parent="uC44kk6Rwxfdya4K_sq8-8" vertex="1">
                    <mxGeometry y="150" width="140" height="30" as="geometry"/>
                </mxCell>
                <mxCell id="uC44kk6Rwxfdya4K_sq8-12" value="state" style="swimlane;fontStyle=0;childLayout=stackLayout;horizontal=1;startSize=30;horizontalStack=0;resizeParent=1;resizeParentMax=0;resizeLast=0;collapsible=1;marginBottom=0;whiteSpace=wrap;html=1;" parent="1" vertex="1">
                    <mxGeometry x="120" y="430" width="140" height="180" as="geometry"/>
                </mxCell>
                <mxCell id="uC44kk6Rwxfdya4K_sq8-13" value="id_state" style="text;strokeColor=none;fillColor=none;align=left;verticalAlign=middle;spacingLeft=4;spacingRight=4;overflow=hidden;points=[[0,0.5],[1,0.5]];portConstraint=eastwest;rotatable=0;whiteSpace=wrap;html=1;" parent="uC44kk6Rwxfdya4K_sq8-12" vertex="1">
                    <mxGeometry y="30" width="140" height="30" as="geometry"/>
                </mxCell>
                <mxCell id="uC44kk6Rwxfdya4K_sq8-14" value="state_description" style="text;strokeColor=none;fillColor=none;align=left;verticalAlign=middle;spacingLeft=4;spacingRight=4;overflow=hidden;points=[[0,0.5],[1,0.5]];portConstraint=eastwest;rotatable=0;whiteSpace=wrap;html=1;" parent="uC44kk6Rwxfdya4K_sq8-12" vertex="1">
                    <mxGeometry y="60" width="140" height="30" as="geometry"/>
                </mxCell>
                <mxCell id="uC44kk6Rwxfdya4K_sq8-15" value="state_comment" style="text;strokeColor=none;fillColor=none;align=left;verticalAlign=middle;spacingLeft=4;spacingRight=4;overflow=hidden;points=[[0,0.5],[1,0.5]];portConstraint=eastwest;rotatable=0;whiteSpace=wrap;html=1;" parent="uC44kk6Rwxfdya4K_sq8-12" vertex="1">
                    <mxGeometry y="90" width="140" height="30" as="geometry"/>
                </mxCell>
                <mxCell id="CSKIVrOOrLpzqzcStOgt-7" value="updated_at" style="text;strokeColor=none;fillColor=none;align=left;verticalAlign=middle;spacingLeft=4;spacingRight=4;overflow=hidden;points=[[0,0.5],[1,0.5]];portConstraint=eastwest;rotatable=0;whiteSpace=wrap;html=1;" parent="uC44kk6Rwxfdya4K_sq8-12" vertex="1">
                    <mxGeometry y="120" width="140" height="30" as="geometry"/>
                </mxCell>
                <mxCell id="CSKIVrOOrLpzqzcStOgt-6" value="created_at" style="text;strokeColor=none;fillColor=none;align=left;verticalAlign=middle;spacingLeft=4;spacingRight=4;overflow=hidden;points=[[0,0.5],[1,0.5]];portConstraint=eastwest;rotatable=0;whiteSpace=wrap;html=1;" parent="uC44kk6Rwxfdya4K_sq8-12" vertex="1">
                    <mxGeometry y="150" width="140" height="30" as="geometry"/>
                </mxCell>
                <mxCell id="uC44kk6Rwxfdya4K_sq8-16" style="edgeStyle=orthogonalEdgeStyle;rounded=0;orthogonalLoop=1;jettySize=auto;html=1;" parent="1" source="uC44kk6Rwxfdya4K_sq8-14" target="uC44kk6Rwxfdya4K_sq8-6" edge="1">
                    <mxGeometry relative="1" as="geometry"/>
                </mxCell>
                <mxCell id="uC44kk6Rwxfdya4K_sq8-17" style="edgeStyle=orthogonalEdgeStyle;rounded=0;orthogonalLoop=1;jettySize=auto;html=1;" parent="1" source="uC44kk6Rwxfdya4K_sq8-3" target="uC44kk6Rwxfdya4K_sq8-11" edge="1">
                    <mxGeometry relative="1" as="geometry"/>
                </mxCell>
                <mxCell id="5YmxOP2as0QFdxcK21rJ-1" value="" style="shape=image;verticalLabelPosition=bottom;labelBackgroundColor=default;verticalAlign=top;aspect=fixed;imageAspect=0;image=data:image/png,iVBORw0KGgoAAAANSUhEUgAAAQUAAAAZCAIAAAC3l6ySAAAHwUlEQVR4Ae1b7U9TVxhH3Zct+wMcYlzMXhLjlHF5s+oMhjqc1gwYXVYBFWPrJsHaESFob8Fo1ba8SK3AqHJ9Q+sGIyAiqMOi8S0oy7IsxsQY9g/4Rb/4pcu5556X+8qlrCXKbW7ac5/nOb/nuQ/P75zntCElNW0xutI+WgSuhamLFqam5q4yLf8yC14WlVdlZWVdXd2WLVtU9IL4q61VX+xuWWn3rXQ0rrD7Vzoal+/yrd9cxKunmKuN/LZpa9tuDxypeNuinireHccHhsO1U1n9P/qfw/cS6isFkWFxatq0+WCxWKYkg1oazJvUNO+w/N3kw7v0B5spH/TkYrOSkaJQydCQGRlIXgaSwYfkPY3hycjAzDKgiw8fL/3UuIwMzIUM6OUDk4BXenq6KTcdA2dmZuKxMTAyMCsZSAYfNn1TcMDNsg2Hq/Y6t2/fVnfA7a4/7A8EQu1hj7fJ03Bo08avZ+XhDadGBiQZSDgfNhZsiPQNN56/Wd8x2D14/8GfT/3cdbZ98MLVBw/+nvyl9+6xrpHzkf6iwm8lkRm3RgaSn4GE8+G4L9DUHV2QUTe/yHuks9/h7Z7/fvWHZf7569gCZ6ixa+C9Uv/hrluNza0ZGRmy5/dEY+Q1ydkEAxs3GSN30lnaWmLtiSqCUD7VfRCUhI2s9kDIXiyGz3e4AjUWXmZxhtgAfzmtYiMGq9B0s40VjF0VZokxf0v70jLGyKzUKZnFSsImMRMbHIY6oFKYiZcllg8ZGRmnOrmSA9wHPxwtqe38/cYjd/DXbewZ04+tubtPfFLRdG1sou3ScFnDxaP+lsx0cpZAD06XLF+nUQ9S6fmkp8vtlbTACWaBXmLJoWco4avE62K9tnwaCVQtyzryGIbJd9gEqoAiQ3UPjPMqvEKxkkK02gQaWO0BCSYkD+1L3VjdKcNY7TAwOl4wpmJmZMhagFKg5NzHzwf58VcuYRimufXUvqaeeUVHvq8LD0afXB66P3D7yYpdLct2Ngcvjow++qf53FDg7PD+2jqlBxaXLKjPaRFCPF3qQK6VOZAJpBgJvLfa0VYAnVicIbuzRrYwg4Km+GC2USwSqxiGEWmp2KW+eJWaMVBKkYsVAhPMFGJWQJYCUsElcxgnH+rr6zmOy87OxrFmZ2dzHOfxSNfvg263jxuZt7FhRz0X/m101U/BcM/tquPdKVt9oUs3Wi8MHQz1nb4yUlqKeiGMCAaSksXlScmBDLwmOQ71P1BL9T08ici9wCkKBDrF8CQGGzcp2i5g9yYAINcxxFJlF5zQ9GEgAq8xyne4qBU3r8LrqjDDd9EksglAMV3Z6luHCALsNrQvqCT7jMSY351g24aLGBjD5k1HzArI0qeQu0ySJB4+ZGVlcRw3Pj6OKQHJACVZWVl07OVlW8/2jc0rOLTn6IW2yzdSlu9vPnfdfbInZY3bE+o93fPH5ZGJznOR1bnyw4MePoAKhNXJFycsOVzoeEBHhIV4gLR08QsyTBEwEBc0Nd0TVVHxBIHxkUiRO+3P4hrcZOMCwvUnTAVlJOl/KA4U17BQC8zA+QEDSj1TvgA3tI0pp9J4+H0DelGIWQ2ZApQGlvT7ePjAMExOTg6mhMlkwmN6x4DPkpu5rLtnaMnOE9bajq6+O5X+K8HuEUt1e4rN99mOQP/ok6fP/123drXKg1M1ByxwwSI5FgAtEioMeHiyektog5zj4kcC4lGuAhLqRYoeCuUucHgEXWOUV+EVuiDSiojaDFBw1GJMoFDZsc4acU9PUYVYgxHxReTKxqpO8UQYrUrMvJUIeWpAjJyUQZx8YBgG7wljY2P0XiEP2xdo9HQMLvi8Jhy5fnN07Fp0wrTnZGHETF+Oq6WFEflXH+IaIkWJ5Pr5QObiOQiEREyMBBkW4AE21pIoupC7w1jyAS59/jwKWxHhvcYCjgHqiz0CkzdXcglvi32hmfynzFi/Uwc494su4Tsx6AAh6wIUxZT4m/j5QFMCN06SgOEJe0P++v6b97n+e+OPJ+48+mvs8bNA11UJGV6/eXXsrvTsQS35cPlHfbpoB9DXL+FqBHUsX7xR4KKuBtygRohMo02RlpdN4QKrEYDWJ30MQHb5Dhf/LSeqJyTn6UEdqYEcr7sWJ26o4JdLouWZhyC+NIw1nOYVW8FXXsK5ArtDEj5mGTKIULV/g2iz8T4jPkBKsCybk5OjHXxJyXcu176qqr0tJzuCoXZfuL8wYnaPVkNWvHj5fOBZr8r+gHsSuvao2kJdkOw8DSISlKCZAQUNXpPRqHBEpkDo6BFgDJ1MkJIoYHOEIQHs1C5U3CF00afKAZcvIFDQ9OprLyYlDmgAF2b8+wA4RQj2PGeIseCR9qVqrOWU/IYgPcxQRa+EjAOT/mQhykVSb2bKhziCLSsvD3Rdc49Wx2Kx4EP/wLPeFy+fQ2LEgUamyBsYojNGRgZ0ZWAW+FBeXt4WuVUYMQcf+mOx2Os3r+DhQWl/0PUM0Ais3vQWMo2phqmRASEDyeNDJsPAr2LXrV3TfuYi3BCCD/3H7nrwWWL6fxbUBaGWZfoIxgwjAyQDyeMD8ckwptxszAF6QNsYYyMDyc+AXj7Mhf8FMZ7RyIAuPqQtWWpcRgbmQgYMPhhUNzJAMmDwgeRiLqx/xjNqZ+A/7HO6Gqxdt4IAAAAASUVORK5CYII=;" parent="1" vertex="1">
                    <mxGeometry x="170" y="180" width="261" height="25" as="geometry"/>
                </mxCell>
                <mxCell id="5YmxOP2as0QFdxcK21rJ-2" value="usuario : utodo" style="text;html=1;align=center;verticalAlign=middle;resizable=0;points=[];autosize=1;strokeColor=none;fillColor=none;" parent="1" vertex="1">
                    <mxGeometry x="170" y="218" width="100" height="30" as="geometry"/>
                </mxCell>
                <mxCell id="5YmxOP2as0QFdxcK21rJ-3" value="password : utodo" style="text;html=1;align=center;verticalAlign=middle;resizable=0;points=[];autosize=1;strokeColor=none;fillColor=none;" parent="1" vertex="1">
                    <mxGeometry x="170" y="248" width="110" height="30" as="geometry"/>
                </mxCell>
            </root>
        </mxGraphModel>
    </diagram>
    <diagram id="PUK3K8QibB0_fOK9f4Av" name="PÃ¡gina-3">
        <mxGraphModel dx="2380" dy="1600" grid="1" gridSize="10" guides="1" tooltips="1" connect="1" arrows="1" fold="1" page="1" pageScale="1" pageWidth="827" pageHeight="1169" math="0" shadow="0">
            <root>
                <mxCell id="0"/>
                <mxCell id="1" parent="0"/>
                <mxCell id="Eum9HqL7h4llklKSUGW2-7" value="" style="edgeStyle=none;html=1;" edge="1" parent="1" source="Eum9HqL7h4llklKSUGW2-1" target="Eum9HqL7h4llklKSUGW2-6">
                    <mxGeometry relative="1" as="geometry"/>
                </mxCell>
                <mxCell id="Eum9HqL7h4llklKSUGW2-1" value="" style="shape=cube;whiteSpace=wrap;html=1;boundedLbl=1;backgroundOutline=1;darkOpacity=0.05;darkOpacity2=0.1;" vertex="1" parent="1">
                    <mxGeometry x="200" y="170" width="230" height="230" as="geometry"/>
                </mxCell>
                <mxCell id="Eum9HqL7h4llklKSUGW2-2" value="List" style="swimlane;fontStyle=0;childLayout=stackLayout;horizontal=1;startSize=30;horizontalStack=0;resizeParent=1;resizeParentMax=0;resizeLast=0;collapsible=1;marginBottom=0;whiteSpace=wrap;html=1;" vertex="1" parent="1">
                    <mxGeometry x="270" y="225" width="110" height="120" as="geometry"/>
                </mxCell>
                <mxCell id="Eum9HqL7h4llklKSUGW2-3" value="Item 1" style="text;strokeColor=none;fillColor=none;align=left;verticalAlign=middle;spacingLeft=4;spacingRight=4;overflow=hidden;points=[[0,0.5],[1,0.5]];portConstraint=eastwest;rotatable=0;whiteSpace=wrap;html=1;" vertex="1" parent="Eum9HqL7h4llklKSUGW2-2">
                    <mxGeometry y="30" width="110" height="30" as="geometry"/>
                </mxCell>
                <mxCell id="Eum9HqL7h4llklKSUGW2-4" value="Item 2" style="text;strokeColor=none;fillColor=none;align=left;verticalAlign=middle;spacingLeft=4;spacingRight=4;overflow=hidden;points=[[0,0.5],[1,0.5]];portConstraint=eastwest;rotatable=0;whiteSpace=wrap;html=1;" vertex="1" parent="Eum9HqL7h4llklKSUGW2-2">
                    <mxGeometry y="60" width="110" height="30" as="geometry"/>
                </mxCell>
                <mxCell id="Eum9HqL7h4llklKSUGW2-5" value="Item 3" style="text;strokeColor=none;fillColor=none;align=left;verticalAlign=middle;spacingLeft=4;spacingRight=4;overflow=hidden;points=[[0,0.5],[1,0.5]];portConstraint=eastwest;rotatable=0;whiteSpace=wrap;html=1;" vertex="1" parent="Eum9HqL7h4llklKSUGW2-2">
                    <mxGeometry y="90" width="110" height="30" as="geometry"/>
                </mxCell>
                <mxCell id="Eum9HqL7h4llklKSUGW2-6" value="MAP -&amp;gt; PARM." style="whiteSpace=wrap;html=1;" vertex="1" parent="1">
                    <mxGeometry x="565" y="255" width="120" height="60" as="geometry"/>
                </mxCell>
                <mxCell id="Eum9HqL7h4llklKSUGW2-13" value="" style="edgeStyle=none;html=1;entryX=0;entryY=0;entryDx=0;entryDy=105;entryPerimeter=0;" edge="1" parent="1" source="Eum9HqL7h4llklKSUGW2-14" target="Eum9HqL7h4llklKSUGW2-20">
                    <mxGeometry relative="1" as="geometry">
                        <mxPoint x="1145" y="285" as="targetPoint"/>
                    </mxGeometry>
                </mxCell>
                <mxCell id="Eum9HqL7h4llklKSUGW2-14" value="" style="shape=cube;whiteSpace=wrap;html=1;boundedLbl=1;backgroundOutline=1;darkOpacity=0.05;darkOpacity2=0.1;" vertex="1" parent="1">
                    <mxGeometry x="780" y="170" width="230" height="230" as="geometry"/>
                </mxCell>
                <mxCell id="Eum9HqL7h4llklKSUGW2-15" value="List" style="swimlane;fontStyle=0;childLayout=stackLayout;horizontal=1;startSize=30;horizontalStack=0;resizeParent=1;resizeParentMax=0;resizeLast=0;collapsible=1;marginBottom=0;whiteSpace=wrap;html=1;" vertex="1" parent="1">
                    <mxGeometry x="850" y="225" width="110" height="120" as="geometry"/>
                </mxCell>
                <mxCell id="Eum9HqL7h4llklKSUGW2-16" value="Item 1" style="text;strokeColor=none;fillColor=none;align=left;verticalAlign=middle;spacingLeft=4;spacingRight=4;overflow=hidden;points=[[0,0.5],[1,0.5]];portConstraint=eastwest;rotatable=0;whiteSpace=wrap;html=1;" vertex="1" parent="Eum9HqL7h4llklKSUGW2-15">
                    <mxGeometry y="30" width="110" height="30" as="geometry"/>
                </mxCell>
                <mxCell id="Eum9HqL7h4llklKSUGW2-17" value="Item 2" style="text;strokeColor=none;fillColor=none;align=left;verticalAlign=middle;spacingLeft=4;spacingRight=4;overflow=hidden;points=[[0,0.5],[1,0.5]];portConstraint=eastwest;rotatable=0;whiteSpace=wrap;html=1;" vertex="1" parent="Eum9HqL7h4llklKSUGW2-15">
                    <mxGeometry y="60" width="110" height="30" as="geometry"/>
                </mxCell>
                <mxCell id="Eum9HqL7h4llklKSUGW2-18" value="Item 3" style="text;strokeColor=none;fillColor=none;align=left;verticalAlign=middle;spacingLeft=4;spacingRight=4;overflow=hidden;points=[[0,0.5],[1,0.5]];portConstraint=eastwest;rotatable=0;whiteSpace=wrap;html=1;" vertex="1" parent="Eum9HqL7h4llklKSUGW2-15">
                    <mxGeometry y="90" width="110" height="30" as="geometry"/>
                </mxCell>
                <mxCell id="Eum9HqL7h4llklKSUGW2-19" value="" style="edgeStyle=none;html=1;" edge="1" parent="1" source="Eum9HqL7h4llklKSUGW2-20">
                    <mxGeometry relative="1" as="geometry">
                        <mxPoint x="1555" y="295" as="targetPoint"/>
                    </mxGeometry>
                </mxCell>
                <mxCell id="Eum9HqL7h4llklKSUGW2-20" value="" style="shape=cube;whiteSpace=wrap;html=1;boundedLbl=1;backgroundOutline=1;darkOpacity=0.05;darkOpacity2=0.1;" vertex="1" parent="1">
                    <mxGeometry x="1190" y="180" width="230" height="230" as="geometry"/>
                </mxCell>
                <mxCell id="Eum9HqL7h4llklKSUGW2-21" value="List" style="swimlane;fontStyle=0;childLayout=stackLayout;horizontal=1;startSize=30;horizontalStack=0;resizeParent=1;resizeParentMax=0;resizeLast=0;collapsible=1;marginBottom=0;whiteSpace=wrap;html=1;" vertex="1" parent="1">
                    <mxGeometry x="1260" y="235" width="110" height="120" as="geometry"/>
                </mxCell>
                <mxCell id="Eum9HqL7h4llklKSUGW2-22" value="Item 1" style="text;strokeColor=none;fillColor=none;align=left;verticalAlign=middle;spacingLeft=4;spacingRight=4;overflow=hidden;points=[[0,0.5],[1,0.5]];portConstraint=eastwest;rotatable=0;whiteSpace=wrap;html=1;" vertex="1" parent="Eum9HqL7h4llklKSUGW2-21">
                    <mxGeometry y="30" width="110" height="30" as="geometry"/>
                </mxCell>
                <mxCell id="Eum9HqL7h4llklKSUGW2-23" value="Item 2" style="text;strokeColor=none;fillColor=none;align=left;verticalAlign=middle;spacingLeft=4;spacingRight=4;overflow=hidden;points=[[0,0.5],[1,0.5]];portConstraint=eastwest;rotatable=0;whiteSpace=wrap;html=1;" vertex="1" parent="Eum9HqL7h4llklKSUGW2-21">
                    <mxGeometry y="60" width="110" height="30" as="geometry"/>
                </mxCell>
                <mxCell id="Eum9HqL7h4llklKSUGW2-24" value="Item 3" style="text;strokeColor=none;fillColor=none;align=left;verticalAlign=middle;spacingLeft=4;spacingRight=4;overflow=hidden;points=[[0,0.5],[1,0.5]];portConstraint=eastwest;rotatable=0;whiteSpace=wrap;html=1;" vertex="1" parent="Eum9HqL7h4llklKSUGW2-21">
                    <mxGeometry y="90" width="110" height="30" as="geometry"/>
                </mxCell>
                <mxCell id="Eum9HqL7h4llklKSUGW2-25" style="edgeStyle=none;html=1;entryX=0;entryY=0;entryDx=0;entryDy=105;entryPerimeter=0;" edge="1" parent="1" source="Eum9HqL7h4llklKSUGW2-6" target="Eum9HqL7h4llklKSUGW2-14">
                    <mxGeometry relative="1" as="geometry"/>
                </mxCell>
                <mxCell id="Eum9HqL7h4llklKSUGW2-26" value="" style="edgeStyle=none;html=1;" edge="1" parent="1" source="Eum9HqL7h4llklKSUGW2-27" target="Eum9HqL7h4llklKSUGW2-32">
                    <mxGeometry relative="1" as="geometry"/>
                </mxCell>
                <mxCell id="Eum9HqL7h4llklKSUGW2-27" value="" style="shape=cube;whiteSpace=wrap;html=1;boundedLbl=1;backgroundOutline=1;darkOpacity=0.05;darkOpacity2=0.1;" vertex="1" parent="1">
                    <mxGeometry x="180" y="610" width="230" height="230" as="geometry"/>
                </mxCell>
                <mxCell id="Eum9HqL7h4llklKSUGW2-28" value="List" style="swimlane;fontStyle=0;childLayout=stackLayout;horizontal=1;startSize=30;horizontalStack=0;resizeParent=1;resizeParentMax=0;resizeLast=0;collapsible=1;marginBottom=0;whiteSpace=wrap;html=1;" vertex="1" parent="1">
                    <mxGeometry x="250" y="665" width="110" height="150" as="geometry"/>
                </mxCell>
                <mxCell id="Eum9HqL7h4llklKSUGW2-29" value="Item 1" style="text;strokeColor=none;fillColor=none;align=left;verticalAlign=middle;spacingLeft=4;spacingRight=4;overflow=hidden;points=[[0,0.5],[1,0.5]];portConstraint=eastwest;rotatable=0;whiteSpace=wrap;html=1;" vertex="1" parent="Eum9HqL7h4llklKSUGW2-28">
                    <mxGeometry y="30" width="110" height="30" as="geometry"/>
                </mxCell>
                <mxCell id="Eum9HqL7h4llklKSUGW2-66" value="Item 2" style="text;strokeColor=none;fillColor=none;align=left;verticalAlign=middle;spacingLeft=4;spacingRight=4;overflow=hidden;points=[[0,0.5],[1,0.5]];portConstraint=eastwest;rotatable=0;whiteSpace=wrap;html=1;" vertex="1" parent="Eum9HqL7h4llklKSUGW2-28">
                    <mxGeometry y="60" width="110" height="30" as="geometry"/>
                </mxCell>
                <mxCell id="Eum9HqL7h4llklKSUGW2-30" value="Item 2" style="text;strokeColor=none;fillColor=none;align=left;verticalAlign=middle;spacingLeft=4;spacingRight=4;overflow=hidden;points=[[0,0.5],[1,0.5]];portConstraint=eastwest;rotatable=0;whiteSpace=wrap;html=1;" vertex="1" parent="Eum9HqL7h4llklKSUGW2-28">
                    <mxGeometry y="90" width="110" height="30" as="geometry"/>
                </mxCell>
                <mxCell id="Eum9HqL7h4llklKSUGW2-31" value="Item 3" style="text;strokeColor=none;fillColor=none;align=left;verticalAlign=middle;spacingLeft=4;spacingRight=4;overflow=hidden;points=[[0,0.5],[1,0.5]];portConstraint=eastwest;rotatable=0;whiteSpace=wrap;html=1;" vertex="1" parent="Eum9HqL7h4llklKSUGW2-28">
                    <mxGeometry y="120" width="110" height="30" as="geometry"/>
                </mxCell>
                <mxCell id="Eum9HqL7h4llklKSUGW2-32" value="MAP -&amp;gt; PARM." style="whiteSpace=wrap;html=1;" vertex="1" parent="1">
                    <mxGeometry x="545" y="695" width="120" height="60" as="geometry"/>
                </mxCell>
                <mxCell id="Eum9HqL7h4llklKSUGW2-33" value="" style="edgeStyle=none;html=1;entryX=0;entryY=0;entryDx=0;entryDy=105;entryPerimeter=0;" edge="1" parent="1" source="Eum9HqL7h4llklKSUGW2-34" target="Eum9HqL7h4llklKSUGW2-40">
                    <mxGeometry relative="1" as="geometry">
                        <mxPoint x="1125" y="725" as="targetPoint"/>
                    </mxGeometry>
                </mxCell>
                <mxCell id="Eum9HqL7h4llklKSUGW2-34" value="" style="shape=cube;whiteSpace=wrap;html=1;boundedLbl=1;backgroundOutline=1;darkOpacity=0.05;darkOpacity2=0.1;" vertex="1" parent="1">
                    <mxGeometry x="760" y="610" width="230" height="230" as="geometry"/>
                </mxCell>
                <mxCell id="Eum9HqL7h4llklKSUGW2-35" value="List" style="swimlane;fontStyle=0;childLayout=stackLayout;horizontal=1;startSize=30;horizontalStack=0;resizeParent=1;resizeParentMax=0;resizeLast=0;collapsible=1;marginBottom=0;whiteSpace=wrap;html=1;" vertex="1" parent="1">
                    <mxGeometry x="830" y="665" width="110" height="120" as="geometry"/>
                </mxCell>
                <mxCell id="Eum9HqL7h4llklKSUGW2-36" value="Item 1" style="text;strokeColor=none;fillColor=none;align=left;verticalAlign=middle;spacingLeft=4;spacingRight=4;overflow=hidden;points=[[0,0.5],[1,0.5]];portConstraint=eastwest;rotatable=0;whiteSpace=wrap;html=1;" vertex="1" parent="Eum9HqL7h4llklKSUGW2-35">
                    <mxGeometry y="30" width="110" height="30" as="geometry"/>
                </mxCell>
                <mxCell id="Eum9HqL7h4llklKSUGW2-37" value="Item 2" style="text;strokeColor=none;fillColor=none;align=left;verticalAlign=middle;spacingLeft=4;spacingRight=4;overflow=hidden;points=[[0,0.5],[1,0.5]];portConstraint=eastwest;rotatable=0;whiteSpace=wrap;html=1;" vertex="1" parent="Eum9HqL7h4llklKSUGW2-35">
                    <mxGeometry y="60" width="110" height="30" as="geometry"/>
                </mxCell>
                <mxCell id="Eum9HqL7h4llklKSUGW2-38" value="Item 3" style="text;strokeColor=none;fillColor=none;align=left;verticalAlign=middle;spacingLeft=4;spacingRight=4;overflow=hidden;points=[[0,0.5],[1,0.5]];portConstraint=eastwest;rotatable=0;whiteSpace=wrap;html=1;" vertex="1" parent="Eum9HqL7h4llklKSUGW2-35">
                    <mxGeometry y="90" width="110" height="30" as="geometry"/>
                </mxCell>
                <mxCell id="Eum9HqL7h4llklKSUGW2-39" value="" style="edgeStyle=none;html=1;" edge="1" parent="1" source="Eum9HqL7h4llklKSUGW2-40">
                    <mxGeometry relative="1" as="geometry">
                        <mxPoint x="1535" y="735" as="targetPoint"/>
                    </mxGeometry>
                </mxCell>
                <mxCell id="Eum9HqL7h4llklKSUGW2-40" value="" style="shape=cube;whiteSpace=wrap;html=1;boundedLbl=1;backgroundOutline=1;darkOpacity=0.05;darkOpacity2=0.1;" vertex="1" parent="1">
                    <mxGeometry x="1170" y="620" width="230" height="230" as="geometry"/>
                </mxCell>
                <mxCell id="Eum9HqL7h4llklKSUGW2-41" value="List" style="swimlane;fontStyle=0;childLayout=stackLayout;horizontal=1;startSize=30;horizontalStack=0;resizeParent=1;resizeParentMax=0;resizeLast=0;collapsible=1;marginBottom=0;whiteSpace=wrap;html=1;" vertex="1" parent="1">
                    <mxGeometry x="1240" y="675" width="110" height="120" as="geometry"/>
                </mxCell>
                <mxCell id="Eum9HqL7h4llklKSUGW2-42" value="Item 1" style="text;strokeColor=none;fillColor=none;align=left;verticalAlign=middle;spacingLeft=4;spacingRight=4;overflow=hidden;points=[[0,0.5],[1,0.5]];portConstraint=eastwest;rotatable=0;whiteSpace=wrap;html=1;" vertex="1" parent="Eum9HqL7h4llklKSUGW2-41">
                    <mxGeometry y="30" width="110" height="30" as="geometry"/>
                </mxCell>
                <mxCell id="Eum9HqL7h4llklKSUGW2-43" value="Item 2" style="text;strokeColor=none;fillColor=none;align=left;verticalAlign=middle;spacingLeft=4;spacingRight=4;overflow=hidden;points=[[0,0.5],[1,0.5]];portConstraint=eastwest;rotatable=0;whiteSpace=wrap;html=1;" vertex="1" parent="Eum9HqL7h4llklKSUGW2-41">
                    <mxGeometry y="60" width="110" height="30" as="geometry"/>
                </mxCell>
                <mxCell id="Eum9HqL7h4llklKSUGW2-44" value="Item 3" style="text;strokeColor=none;fillColor=none;align=left;verticalAlign=middle;spacingLeft=4;spacingRight=4;overflow=hidden;points=[[0,0.5],[1,0.5]];portConstraint=eastwest;rotatable=0;whiteSpace=wrap;html=1;" vertex="1" parent="Eum9HqL7h4llklKSUGW2-41">
                    <mxGeometry y="90" width="110" height="30" as="geometry"/>
                </mxCell>
                <mxCell id="Eum9HqL7h4llklKSUGW2-45" style="edgeStyle=none;html=1;entryX=0;entryY=0;entryDx=0;entryDy=105;entryPerimeter=0;" edge="1" parent="1" source="Eum9HqL7h4llklKSUGW2-32" target="Eum9HqL7h4llklKSUGW2-34">
                    <mxGeometry relative="1" as="geometry"/>
                </mxCell>
                <mxCell id="Eum9HqL7h4llklKSUGW2-46" value="" style="edgeStyle=none;html=1;" edge="1" parent="1" source="Eum9HqL7h4llklKSUGW2-47" target="Eum9HqL7h4llklKSUGW2-52">
                    <mxGeometry relative="1" as="geometry"/>
                </mxCell>
                <mxCell id="Eum9HqL7h4llklKSUGW2-47" value="" style="shape=cube;whiteSpace=wrap;html=1;boundedLbl=1;backgroundOutline=1;darkOpacity=0.05;darkOpacity2=0.1;" vertex="1" parent="1">
                    <mxGeometry x="140" y="1100" width="230" height="230" as="geometry"/>
                </mxCell>
                <mxCell id="Eum9HqL7h4llklKSUGW2-48" value="List" style="swimlane;fontStyle=0;childLayout=stackLayout;horizontal=1;startSize=30;horizontalStack=0;resizeParent=1;resizeParentMax=0;resizeLast=0;collapsible=1;marginBottom=0;whiteSpace=wrap;html=1;" vertex="1" parent="1">
                    <mxGeometry x="210" y="1155" width="110" height="120" as="geometry"/>
                </mxCell>
                <mxCell id="Eum9HqL7h4llklKSUGW2-49" value="Item 1" style="text;strokeColor=none;fillColor=none;align=left;verticalAlign=middle;spacingLeft=4;spacingRight=4;overflow=hidden;points=[[0,0.5],[1,0.5]];portConstraint=eastwest;rotatable=0;whiteSpace=wrap;html=1;" vertex="1" parent="Eum9HqL7h4llklKSUGW2-48">
                    <mxGeometry y="30" width="110" height="30" as="geometry"/>
                </mxCell>
                <mxCell id="Eum9HqL7h4llklKSUGW2-50" value="Item 2" style="text;strokeColor=none;fillColor=none;align=left;verticalAlign=middle;spacingLeft=4;spacingRight=4;overflow=hidden;points=[[0,0.5],[1,0.5]];portConstraint=eastwest;rotatable=0;whiteSpace=wrap;html=1;" vertex="1" parent="Eum9HqL7h4llklKSUGW2-48">
                    <mxGeometry y="60" width="110" height="30" as="geometry"/>
                </mxCell>
                <mxCell id="Eum9HqL7h4llklKSUGW2-51" value="Item 3" style="text;strokeColor=none;fillColor=none;align=left;verticalAlign=middle;spacingLeft=4;spacingRight=4;overflow=hidden;points=[[0,0.5],[1,0.5]];portConstraint=eastwest;rotatable=0;whiteSpace=wrap;html=1;" vertex="1" parent="Eum9HqL7h4llklKSUGW2-48">
                    <mxGeometry y="90" width="110" height="30" as="geometry"/>
                </mxCell>
                <mxCell id="Eum9HqL7h4llklKSUGW2-52" value="MAP -&amp;gt; PARM." style="whiteSpace=wrap;html=1;" vertex="1" parent="1">
                    <mxGeometry x="505" y="1185" width="120" height="60" as="geometry"/>
                </mxCell>
                <mxCell id="Eum9HqL7h4llklKSUGW2-53" value="" style="edgeStyle=none;html=1;entryX=0;entryY=0;entryDx=0;entryDy=105;entryPerimeter=0;" edge="1" parent="1" source="Eum9HqL7h4llklKSUGW2-54" target="Eum9HqL7h4llklKSUGW2-60">
                    <mxGeometry relative="1" as="geometry">
                        <mxPoint x="1085" y="1215" as="targetPoint"/>
                    </mxGeometry>
                </mxCell>
                <mxCell id="Eum9HqL7h4llklKSUGW2-54" value="" style="shape=cube;whiteSpace=wrap;html=1;boundedLbl=1;backgroundOutline=1;darkOpacity=0.05;darkOpacity2=0.1;" vertex="1" parent="1">
                    <mxGeometry x="720" y="1100" width="230" height="230" as="geometry"/>
                </mxCell>
                <mxCell id="Eum9HqL7h4llklKSUGW2-55" value="List" style="swimlane;fontStyle=0;childLayout=stackLayout;horizontal=1;startSize=30;horizontalStack=0;resizeParent=1;resizeParentMax=0;resizeLast=0;collapsible=1;marginBottom=0;whiteSpace=wrap;html=1;" vertex="1" parent="1">
                    <mxGeometry x="790" y="1155" width="110" height="120" as="geometry"/>
                </mxCell>
                <mxCell id="Eum9HqL7h4llklKSUGW2-56" value="Item 1" style="text;strokeColor=none;fillColor=none;align=left;verticalAlign=middle;spacingLeft=4;spacingRight=4;overflow=hidden;points=[[0,0.5],[1,0.5]];portConstraint=eastwest;rotatable=0;whiteSpace=wrap;html=1;" vertex="1" parent="Eum9HqL7h4llklKSUGW2-55">
                    <mxGeometry y="30" width="110" height="30" as="geometry"/>
                </mxCell>
                <mxCell id="Eum9HqL7h4llklKSUGW2-57" value="Item 2" style="text;strokeColor=none;fillColor=none;align=left;verticalAlign=middle;spacingLeft=4;spacingRight=4;overflow=hidden;points=[[0,0.5],[1,0.5]];portConstraint=eastwest;rotatable=0;whiteSpace=wrap;html=1;" vertex="1" parent="Eum9HqL7h4llklKSUGW2-55">
                    <mxGeometry y="60" width="110" height="30" as="geometry"/>
                </mxCell>
                <mxCell id="Eum9HqL7h4llklKSUGW2-58" value="Item 3" style="text;strokeColor=none;fillColor=none;align=left;verticalAlign=middle;spacingLeft=4;spacingRight=4;overflow=hidden;points=[[0,0.5],[1,0.5]];portConstraint=eastwest;rotatable=0;whiteSpace=wrap;html=1;" vertex="1" parent="Eum9HqL7h4llklKSUGW2-55">
                    <mxGeometry y="90" width="110" height="30" as="geometry"/>
                </mxCell>
                <mxCell id="Eum9HqL7h4llklKSUGW2-59" value="" style="edgeStyle=none;html=1;" edge="1" parent="1" source="Eum9HqL7h4llklKSUGW2-60">
                    <mxGeometry relative="1" as="geometry">
                        <mxPoint x="1495" y="1225" as="targetPoint"/>
                    </mxGeometry>
                </mxCell>
                <mxCell id="Eum9HqL7h4llklKSUGW2-60" value="" style="shape=cube;whiteSpace=wrap;html=1;boundedLbl=1;backgroundOutline=1;darkOpacity=0.05;darkOpacity2=0.1;" vertex="1" parent="1">
                    <mxGeometry x="1130" y="1110" width="230" height="230" as="geometry"/>
                </mxCell>
                <mxCell id="Eum9HqL7h4llklKSUGW2-61" value="List" style="swimlane;fontStyle=0;childLayout=stackLayout;horizontal=1;startSize=30;horizontalStack=0;resizeParent=1;resizeParentMax=0;resizeLast=0;collapsible=1;marginBottom=0;whiteSpace=wrap;html=1;" vertex="1" parent="1">
                    <mxGeometry x="1200" y="1165" width="110" height="120" as="geometry"/>
                </mxCell>
                <mxCell id="Eum9HqL7h4llklKSUGW2-62" value="Item 1" style="text;strokeColor=none;fillColor=none;align=left;verticalAlign=middle;spacingLeft=4;spacingRight=4;overflow=hidden;points=[[0,0.5],[1,0.5]];portConstraint=eastwest;rotatable=0;whiteSpace=wrap;html=1;" vertex="1" parent="Eum9HqL7h4llklKSUGW2-61">
                    <mxGeometry y="30" width="110" height="30" as="geometry"/>
                </mxCell>
                <mxCell id="Eum9HqL7h4llklKSUGW2-63" value="Item 2" style="text;strokeColor=none;fillColor=none;align=left;verticalAlign=middle;spacingLeft=4;spacingRight=4;overflow=hidden;points=[[0,0.5],[1,0.5]];portConstraint=eastwest;rotatable=0;whiteSpace=wrap;html=1;" vertex="1" parent="Eum9HqL7h4llklKSUGW2-61">
                    <mxGeometry y="60" width="110" height="30" as="geometry"/>
                </mxCell>
                <mxCell id="Eum9HqL7h4llklKSUGW2-64" value="Item 3" style="text;strokeColor=none;fillColor=none;align=left;verticalAlign=middle;spacingLeft=4;spacingRight=4;overflow=hidden;points=[[0,0.5],[1,0.5]];portConstraint=eastwest;rotatable=0;whiteSpace=wrap;html=1;" vertex="1" parent="Eum9HqL7h4llklKSUGW2-61">
                    <mxGeometry y="90" width="110" height="30" as="geometry"/>
                </mxCell>
                <mxCell id="Eum9HqL7h4llklKSUGW2-65" style="edgeStyle=none;html=1;entryX=0;entryY=0;entryDx=0;entryDy=105;entryPerimeter=0;" edge="1" parent="1" source="Eum9HqL7h4llklKSUGW2-52" target="Eum9HqL7h4llklKSUGW2-54">
                    <mxGeometry relative="1" as="geometry"/>
                </mxCell>
                <mxCell id="Eum9HqL7h4llklKSUGW2-67" value="&lt;font style=&quot;font-size: 48px;&quot;&gt;RETURN&lt;/font&gt;" style="text;html=1;align=center;verticalAlign=middle;resizable=0;points=[];autosize=1;strokeColor=none;fillColor=none;" vertex="1" parent="1">
                    <mxGeometry x="-220" y="685" width="220" height="70" as="geometry"/>
                </mxCell>
                <mxCell id="Eum9HqL7h4llklKSUGW2-68" style="edgeStyle=none;html=1;entryX=0.998;entryY=0.536;entryDx=0;entryDy=0;entryPerimeter=0;" edge="1" parent="1" source="Eum9HqL7h4llklKSUGW2-27" target="Eum9HqL7h4llklKSUGW2-67">
                    <mxGeometry relative="1" as="geometry"/>
                </mxCell>
            </root>
        </mxGraphModel>
    </diagram>
</mxfile>